<svg width="32" height="32" viewBox="0 0 32 32" fill="none" xmlns="http://www.w3.org/2000/svg">
<circle cx="16" cy="16" r="16" fill="url(#paint0_radial_3173_540)"/>
<path fill-rule="evenodd" clip-rule="evenodd" d="M16.9664 10.3857L19.5359 8L24 12.2986L21.5682 14.8208L16.9664 10.3857ZM8 24.1712C8.63099 21.4698 10.3897 14.5619 10.3897 14.5619L16.0117 11.2579L20.6937 15.6418L17.1166 21.0015L8.2145 24.4489L12.4346 20.4809C13.1492 20.7478 14.1585 20.5065 14.7042 19.9074C15.4245 19.1205 15.3704 17.8984 14.583 17.178C13.7955 16.4577 12.5131 16.4577 11.7928 17.2446C11.2562 17.8312 11.0713 18.8662 11.378 19.5484L8 24.1712Z" fill="white"/>
<defs>
<radialGradient id="paint0_radial_3173_540" cx="0" cy="0" r="1" gradientUnits="userSpaceOnUse" gradientTransform="translate(33.248 -3.3237) rotate(129.411) scale(53.3811)">
<stop stop-color="#E84D70"/>
<stop offset="0.530886" stop-color="#A337F6"/>
<stop offset="1" stop-color="#28A7ED"/>
</radialGradient>
</defs>
</svg>
